<svg xmlns="http://www.w3.org/2000/svg" width="60" height="60" viewBox="0 0 60 60">
  <rect width="60" height="60" rx="14" fill="#c1272d" />
  <g transform="translate(11.25,10.08)">
    <svg width="37.5" height="37.5" viewBox="0 0 60 60" fill="none">
      <path d="M8 38 L8 22 Q8 20 9.5 18.5 L28 3 Q30 1.5 32 3 L50.5 18.5 Q52 20 52 22 L52 38" stroke="#ffffff" stroke-width="5" stroke-linecap="round" stroke-linejoin="round" fill="none" />
      <line x1="8" y1="38" x2="52" y2="38" stroke="#ffffff" stroke-width="5" stroke-linecap="round" />
      <rect x="25" y="26" width="10" height="12" fill="#ffffff" />
      <rect x="28" y="29" width="4" height="1.6" fill="#c1272d" />
      <rect x="29.2" y="27.8" width="1.6" height="4.4" fill="#c1272d" />
      <ellipse cx="14" cy="48" rx="3.5" ry="2.3" fill="#ffffff" transform="rotate(-20 14 48)" />
      <ellipse cx="20" cy="43" rx="3.5" ry="2.3" fill="#ffffff" transform="rotate(-20 20 43)" />
    </svg>
  </g>
</svg>
